<svg width="256" height="160" xmlns="http://www.w3.org/2000/svg">
  <rect x="0" y="0" width="32" height="32" fill="#000033" />
  <rect x="32" y="0" width="32" height="32" fill="#0000dd" />
  <rect x="64" y="0" width="32" height="32" fill="#0000aa" />
  <rect x="96" y="0" width="32" height="32" fill="#000055" />
  <rect x="128" y="0" width="32" height="32" fill="#000044" />
  <rect x="160" y="0" width="32" height="32" fill="#000011" />
  <rect x="192" y="0" width="32" height="32" fill="#000055" />
  <rect x="224" y="0" width="32" height="32" fill="#000055" />
  <rect x="0" y="32" width="32" height="32" fill="#000099" />
  <rect x="32" y="32" width="32" height="32" fill="#000099" />
  <rect x="64" y="32" width="32" height="32" fill="#000011" />
  <rect x="96" y="32" width="32" height="32" fill="#000088" />
  <rect x="128" y="32" width="32" height="32" fill="#0000aa" />
  <rect x="160" y="32" width="32" height="32" fill="#000088" />
  <rect x="192" y="32" width="32" height="32" fill="#000000" />
  <rect x="224" y="32" width="32" height="32" fill="#000088" />
  <rect x="0" y="64" width="32" height="32" fill="#0000cc" />
  <rect x="32" y="64" width="32" height="32" fill="#000022" />
  <rect x="64" y="64" width="32" height="32" fill="#000044" />
  <rect x="96" y="64" width="32" height="32" fill="#000000" />
  <rect x="128" y="64" width="32" height="32" fill="#000022" />
  <rect x="160" y="64" width="32" height="32" fill="#0000bb" />
  <rect x="192" y="64" width="32" height="32" fill="#0000bb" />
  <rect x="224" y="64" width="32" height="32" fill="#0000aa" />
  <rect x="0" y="96" width="32" height="32" fill="#000055" />
  <rect x="32" y="96" width="32" height="32" fill="#000000" />
  <rect x="64" y="96" width="32" height="32" fill="#000011" />
  <rect x="96" y="96" width="32" height="32" fill="#000022" />
  <rect x="128" y="96" width="32" height="32" fill="#0000ff" />
  <rect x="160" y="96" width="32" height="32" fill="#000066" />
  <rect x="192" y="96" width="32" height="32" fill="#0000cc" />
  <rect x="224" y="96" width="32" height="32" fill="#000066" />
  <rect x="0" y="128" width="32" height="32" fill="#000000" />
  <rect x="32" y="128" width="32" height="32" fill="#0000bb" />
  <rect x="64" y="128" width="32" height="32" fill="#000022" />
  <rect x="96" y="128" width="32" height="32" fill="#000077" />
  <rect x="128" y="128" width="32" height="32" fill="#000066" />
  <rect x="160" y="128" width="32" height="32" fill="#000066" />
  <rect x="192" y="128" width="32" height="32" fill="#000011" />
  <rect x="224" y="128" width="32" height="32" fill="#0000cc" />
</svg>