<svg width="256" height="224" xmlns="http://www.w3.org/2000/svg">
  <rect x="0" y="0" width="32" height="32" fill="#777777" />
  <rect x="32" y="0" width="32" height="32" fill="#888888" />
  <rect x="64" y="0" width="32" height="32" fill="#777777" />
  <rect x="96" y="0" width="32" height="32" fill="#222222" />
  <rect x="128" y="0" width="32" height="32" fill="#aaaaaa" />
  <rect x="160" y="0" width="32" height="32" fill="#777777" />
  <rect x="192" y="0" width="32" height="32" fill="#444444" />
  <rect x="224" y="0" width="32" height="32" fill="#bbbbbb" />
  <rect x="0" y="32" width="32" height="32" fill="#cccccc" />
  <rect x="32" y="32" width="32" height="32" fill="#bbbbbb" />
  <rect x="64" y="32" width="32" height="32" fill="#ffffff" />
  <rect x="96" y="32" width="32" height="32" fill="#222222" />
  <rect x="128" y="32" width="32" height="32" fill="#999999" />
  <rect x="160" y="32" width="32" height="32" fill="#888888" />
  <rect x="192" y="32" width="32" height="32" fill="#aaaaaa" />
  <rect x="224" y="32" width="32" height="32" fill="#111111" />
  <rect x="0" y="64" width="32" height="32" fill="#eeeeee" />
  <rect x="32" y="64" width="32" height="32" fill="#777777" />
  <rect x="64" y="64" width="32" height="32" fill="#777777" />
  <rect x="96" y="64" width="32" height="32" fill="#dddddd" />
  <rect x="128" y="64" width="32" height="32" fill="#555555" />
  <rect x="160" y="64" width="32" height="32" fill="#000000" />
  <rect x="192" y="64" width="32" height="32" fill="#777777" />
  <rect x="224" y="64" width="32" height="32" fill="#cccccc" />
  <rect x="0" y="96" width="32" height="32" fill="#dddddd" />
  <rect x="32" y="96" width="32" height="32" fill="#999999" />
  <rect x="64" y="96" width="32" height="32" fill="#555555" />
  <rect x="96" y="96" width="32" height="32" fill="#dddddd" />
  <rect x="128" y="96" width="32" height="32" fill="#444444" />
  <rect x="160" y="96" width="32" height="32" fill="#ffffff" />
  <rect x="192" y="96" width="32" height="32" fill="#888888" />
  <rect x="224" y="96" width="32" height="32" fill="#dddddd" />
  <rect x="0" y="128" width="32" height="32" fill="#999999" />
  <rect x="32" y="128" width="32" height="32" fill="#666666" />
  <rect x="64" y="128" width="32" height="32" fill="#111111" />
  <rect x="96" y="128" width="32" height="32" fill="#333333" />
  <rect x="128" y="128" width="32" height="32" fill="#111111" />
  <rect x="160" y="128" width="32" height="32" fill="#cccccc" />
  <rect x="192" y="128" width="32" height="32" fill="#bbbbbb" />
  <rect x="224" y="128" width="32" height="32" fill="#bbbbbb" />
  <rect x="0" y="160" width="32" height="32" fill="#dddddd" />
  <rect x="32" y="160" width="32" height="32" fill="#444444" />
  <rect x="64" y="160" width="32" height="32" fill="#cccccc" />
  <rect x="96" y="160" width="32" height="32" fill="#dddddd" />
  <rect x="128" y="160" width="32" height="32" fill="#ffffff" />
  <rect x="160" y="160" width="32" height="32" fill="#cccccc" />
  <rect x="192" y="160" width="32" height="32" fill="#555555" />
  <rect x="224" y="160" width="32" height="32" fill="#777777" />
  <rect x="0" y="192" width="32" height="32" fill="#111111" />
  <rect x="32" y="192" width="32" height="32" fill="#eeeeee" />
  <rect x="64" y="192" width="32" height="32" fill="#777777" />
  <rect x="96" y="192" width="32" height="32" fill="#777777" />
  <rect x="128" y="192" width="32" height="32" fill="#666666" />
  <rect x="160" y="192" width="32" height="32" fill="#cccccc" />
  <rect x="192" y="192" width="32" height="32" fill="#888888" />
  <rect x="224" y="192" width="32" height="32" fill="#aaaaaa" />
</svg>