<svg width="256" height="256" xmlns="http://www.w3.org/2000/svg">
  <rect x="0" y="0" width="32" height="32" fill="#ff0000" />
  <rect x="32" y="0" width="32" height="32" fill="#000000" />
  <rect x="64" y="0" width="32" height="32" fill="#ee0000" />
  <rect x="96" y="0" width="32" height="32" fill="#440000" />
  <rect x="128" y="0" width="32" height="32" fill="#cc0000" />
  <rect x="160" y="0" width="32" height="32" fill="#220000" />
  <rect x="192" y="0" width="32" height="32" fill="#ff0000" />
  <rect x="224" y="0" width="32" height="32" fill="#770000" />
  <rect x="0" y="32" width="32" height="32" fill="#660000" />
  <rect x="32" y="32" width="32" height="32" fill="#cc0000" />
  <rect x="64" y="32" width="32" height="32" fill="#550000" />
  <rect x="96" y="32" width="32" height="32" fill="#880000" />
  <rect x="128" y="32" width="32" height="32" fill="#990000" />
  <rect x="160" y="32" width="32" height="32" fill="#110000" />
  <rect x="192" y="32" width="32" height="32" fill="#660000" />
  <rect x="224" y="32" width="32" height="32" fill="#ee0000" />
  <rect x="0" y="64" width="32" height="32" fill="#cc0000" />
  <rect x="32" y="64" width="32" height="32" fill="#220000" />
  <rect x="64" y="64" width="32" height="32" fill="#550000" />
  <rect x="96" y="64" width="32" height="32" fill="#880000" />
  <rect x="128" y="64" width="32" height="32" fill="#ff0000" />
  <rect x="160" y="64" width="32" height="32" fill="#220000" />
  <rect x="192" y="64" width="32" height="32" fill="#440000" />
  <rect x="224" y="64" width="32" height="32" fill="#660000" />
  <rect x="0" y="96" width="32" height="32" fill="#880000" />
  <rect x="32" y="96" width="32" height="32" fill="#550000" />
  <rect x="64" y="96" width="32" height="32" fill="#110000" />
  <rect x="96" y="96" width="32" height="32" fill="#bb0000" />
  <rect x="128" y="96" width="32" height="32" fill="#ee0000" />
  <rect x="160" y="96" width="32" height="32" fill="#aa0000" />
  <rect x="192" y="96" width="32" height="32" fill="#000000" />
  <rect x="224" y="96" width="32" height="32" fill="#990000" />
  <rect x="0" y="128" width="32" height="32" fill="#110000" />
  <rect x="32" y="128" width="32" height="32" fill="#dd0000" />
  <rect x="64" y="128" width="32" height="32" fill="#110000" />
  <rect x="96" y="128" width="32" height="32" fill="#440000" />
  <rect x="128" y="128" width="32" height="32" fill="#dd0000" />
  <rect x="160" y="128" width="32" height="32" fill="#440000" />
  <rect x="192" y="128" width="32" height="32" fill="#220000" />
  <rect x="224" y="128" width="32" height="32" fill="#440000" />
  <rect x="0" y="160" width="32" height="32" fill="#770000" />
  <rect x="32" y="160" width="32" height="32" fill="#aa0000" />
  <rect x="64" y="160" width="32" height="32" fill="#220000" />
  <rect x="96" y="160" width="32" height="32" fill="#ff0000" />
  <rect x="128" y="160" width="32" height="32" fill="#cc0000" />
  <rect x="160" y="160" width="32" height="32" fill="#330000" />
  <rect x="192" y="160" width="32" height="32" fill="#ee0000" />
  <rect x="224" y="160" width="32" height="32" fill="#110000" />
  <rect x="0" y="192" width="32" height="32" fill="#880000" />
  <rect x="32" y="192" width="32" height="32" fill="#660000" />
  <rect x="64" y="192" width="32" height="32" fill="#990000" />
  <rect x="96" y="192" width="32" height="32" fill="#440000" />
  <rect x="128" y="192" width="32" height="32" fill="#440000" />
  <rect x="160" y="192" width="32" height="32" fill="#660000" />
  <rect x="192" y="192" width="32" height="32" fill="#110000" />
  <rect x="224" y="192" width="32" height="32" fill="#bb0000" />
  <rect x="0" y="224" width="32" height="32" fill="#110000" />
  <rect x="32" y="224" width="32" height="32" fill="#880000" />
  <rect x="64" y="224" width="32" height="32" fill="#110000" />
  <rect x="96" y="224" width="32" height="32" fill="#660000" />
  <rect x="128" y="224" width="32" height="32" fill="#ee0000" />
  <rect x="160" y="224" width="32" height="32" fill="#110000" />
  <rect x="192" y="224" width="32" height="32" fill="#330000" />
  <rect x="224" y="224" width="32" height="32" fill="#bb0000" />
</svg>