<svg width="256" height="160" xmlns="http://www.w3.org/2000/svg">
  <rect x="0" y="0" width="32" height="32" fill="hsl(300.00,100.00%,3.00%)" />
  <rect x="32" y="0" width="32" height="32" fill="hsl(300.00,100.00%,30.00%)" />
  <rect x="64" y="0" width="32" height="32" fill="hsl(300.00,100.00%,17.00%)" />
  <rect x="96" y="0" width="32" height="32" fill="hsl(300.00,100.00%,23.00%)" />
  <rect x="128" y="0" width="32" height="32" fill="hsl(300.00,100.00%,27.00%)" />
  <rect x="160" y="0" width="32" height="32" fill="hsl(300.00,100.00%,17.00%)" />
  <rect x="192" y="0" width="32" height="32" fill="hsl(300.00,100.00%,10.00%)" />
  <rect x="224" y="0" width="32" height="32" fill="hsl(300.00,100.00%,20.00%)" />
  <rect x="0" y="32" width="32" height="32" fill="hsl(300.00,100.00%,33.00%)" />
  <rect x="32" y="32" width="32" height="32" fill="hsl(300.00,100.00%,33.00%)" />
  <rect x="64" y="32" width="32" height="32" fill="hsl(300.00,100.00%,17.00%)" />
  <rect x="96" y="32" width="32" height="32" fill="hsl(300.00,100.00%,3.00%)" />
  <rect x="128" y="32" width="32" height="32" fill="hsl(300.00,100.00%,27.00%)" />
  <rect x="160" y="32" width="32" height="32" fill="hsl(300.00,100.00%,30.00%)" />
  <rect x="192" y="32" width="32" height="32" fill="hsl(300.00,100.00%,20.00%)" />
  <rect x="224" y="32" width="32" height="32" fill="hsl(300.00,100.00%,30.00%)" />
  <rect x="0" y="64" width="32" height="32" fill="hsl(300.00,100.00%,33.00%)" />
  <rect x="32" y="64" width="32" height="32" fill="hsl(300.00,100.00%,37.00%)" />
  <rect x="64" y="64" width="32" height="32" fill="hsl(300.00,100.00%,23.00%)" />
  <rect x="96" y="64" width="32" height="32" fill="hsl(300.00,100.00%,23.00%)" />
  <rect x="128" y="64" width="32" height="32" fill="hsl(300.00,100.00%,37.00%)" />
  <rect x="160" y="64" width="32" height="32" fill="hsl(300.00,100.00%,47.00%)" />
  <rect x="192" y="64" width="32" height="32" fill="hsl(300.00,100.00%,3.00%)" />
  <rect x="224" y="64" width="32" height="32" fill="hsl(300.00,100.00%,50.00%)" />
  <rect x="0" y="96" width="32" height="32" fill="hsl(300.00,100.00%,20.00%)" />
  <rect x="32" y="96" width="32" height="32" fill="hsl(300.00,100.00%,10.00%)" />
  <rect x="64" y="96" width="32" height="32" fill="hsl(300.00,100.00%,13.00%)" />
  <rect x="96" y="96" width="32" height="32" fill="hsl(300.00,100.00%,7.00%)" />
  <rect x="128" y="96" width="32" height="32" fill="hsl(300.00,100.00%,0.00%)" />
  <rect x="160" y="96" width="32" height="32" fill="hsl(300.00,100.00%,23.00%)" />
  <rect x="192" y="96" width="32" height="32" fill="hsl(300.00,100.00%,43.00%)" />
  <rect x="224" y="96" width="32" height="32" fill="hsl(300.00,100.00%,43.00%)" />
  <rect x="0" y="128" width="32" height="32" fill="hsl(300.00,100.00%,20.00%)" />
  <rect x="32" y="128" width="32" height="32" fill="hsl(300.00,100.00%,33.00%)" />
  <rect x="64" y="128" width="32" height="32" fill="hsl(300.00,100.00%,20.00%)" />
  <rect x="96" y="128" width="32" height="32" fill="hsl(300.00,100.00%,47.00%)" />
  <rect x="128" y="128" width="32" height="32" fill="hsl(300.00,100.00%,27.00%)" />
  <rect x="160" y="128" width="32" height="32" fill="hsl(300.00,100.00%,50.00%)" />
  <rect x="192" y="128" width="32" height="32" fill="hsl(300.00,100.00%,40.00%)" />
  <rect x="224" y="128" width="32" height="32" fill="hsl(300.00,100.00%,30.00%)" />
</svg>