<svg width="256" height="128" xmlns="http://www.w3.org/2000/svg">
  <rect x="0" y="0" width="32" height="32" fill="#00dd00" />
  <rect x="32" y="0" width="32" height="32" fill="#004400" />
  <rect x="64" y="0" width="32" height="32" fill="#001100" />
  <rect x="96" y="0" width="32" height="32" fill="#00dd00" />
  <rect x="128" y="0" width="32" height="32" fill="#008800" />
  <rect x="160" y="0" width="32" height="32" fill="#00cc00" />
  <rect x="192" y="0" width="32" height="32" fill="#00dd00" />
  <rect x="224" y="0" width="32" height="32" fill="#009900" />
  <rect x="0" y="32" width="32" height="32" fill="#008800" />
  <rect x="32" y="32" width="32" height="32" fill="#00ff00" />
  <rect x="64" y="32" width="32" height="32" fill="#000000" />
  <rect x="96" y="32" width="32" height="32" fill="#000000" />
  <rect x="128" y="32" width="32" height="32" fill="#00bb00" />
  <rect x="160" y="32" width="32" height="32" fill="#002200" />
  <rect x="192" y="32" width="32" height="32" fill="#000000" />
  <rect x="224" y="32" width="32" height="32" fill="#004400" />
  <rect x="0" y="64" width="32" height="32" fill="#00ee00" />
  <rect x="32" y="64" width="32" height="32" fill="#009900" />
  <rect x="64" y="64" width="32" height="32" fill="#008800" />
  <rect x="96" y="64" width="32" height="32" fill="#000000" />
  <rect x="128" y="64" width="32" height="32" fill="#000000" />
  <rect x="160" y="64" width="32" height="32" fill="#009900" />
  <rect x="192" y="64" width="32" height="32" fill="#009900" />
  <rect x="224" y="64" width="32" height="32" fill="#008800" />
  <rect x="0" y="96" width="32" height="32" fill="#00ee00" />
  <rect x="32" y="96" width="32" height="32" fill="#00cc00" />
  <rect x="64" y="96" width="32" height="32" fill="#00ff00" />
  <rect x="96" y="96" width="32" height="32" fill="#008800" />
  <rect x="128" y="96" width="32" height="32" fill="#004400" />
  <rect x="160" y="96" width="32" height="32" fill="#002200" />
  <rect x="192" y="96" width="32" height="32" fill="#007700" />
  <rect x="224" y="96" width="32" height="32" fill="#00ee00" />
</svg>