<svg width="544" height="288" xmlns="http://www.w3.org/2000/svg">
  <rect x="0" y="0" width="32" height="32" fill="#111111" />
  <rect x="32" y="0" width="32" height="32" fill="#eeeeee" />
  <rect x="64" y="0" width="32" height="32" fill="#eeeeee" />
  <rect x="96" y="0" width="32" height="32" fill="#eeeeee" />
  <rect x="128" y="0" width="32" height="32" fill="#aaaaaa" />
  <rect x="160" y="0" width="32" height="32" fill="#cccccc" />
  <rect x="192" y="0" width="32" height="32" fill="#cccccc" />
  <rect x="224" y="0" width="32" height="32" fill="#cccccc" />
  <rect x="256" y="0" width="32" height="32" fill="#bbbbbb" />
  <rect x="288" y="0" width="32" height="32" fill="#dddddd" />
  <rect x="320" y="0" width="32" height="32" fill="#dddddd" />
  <rect x="352" y="0" width="32" height="32" fill="#dddddd" />
  <rect x="384" y="0" width="32" height="32" fill="#cccccc" />
  <rect x="416" y="0" width="32" height="32" fill="#ffffff" />
  <rect x="448" y="0" width="32" height="32" fill="#ffffff" />
  <rect x="480" y="0" width="32" height="32" fill="#ffffff" />
  <rect x="512" y="0" width="32" height="32" fill="#ffffff" />
  <rect x="0" y="32" width="32" height="32" fill="#cccccc" />
  <rect x="32" y="32" width="32" height="32" fill="#ffffff" />
  <rect x="64" y="32" width="32" height="32" fill="#ffffff" />
  <rect x="96" y="32" width="32" height="32" fill="#eeeeee" />
  <rect x="128" y="32" width="32" height="32" fill="#ffffff" />
  <rect x="160" y="32" width="32" height="32" fill="#aaaaaa" />
  <rect x="192" y="32" width="32" height="32" fill="#ffffff" />
  <rect x="224" y="32" width="32" height="32" fill="#ffffff" />
  <rect x="256" y="32" width="32" height="32" fill="#ffffff" />
  <rect x="288" y="32" width="32" height="32" fill="#dddddd" />
  <rect x="320" y="32" width="32" height="32" fill="#ffffff" />
  <rect x="352" y="32" width="32" height="32" fill="#dddddd" />
  <rect x="384" y="32" width="32" height="32" fill="#ffffff" />
  <rect x="416" y="32" width="32" height="32" fill="#dddddd" />
  <rect x="448" y="32" width="32" height="32" fill="#ffffff" />
  <rect x="480" y="32" width="32" height="32" fill="#ffffff" />
  <rect x="512" y="32" width="32" height="32" fill="#ffffff" />
  <rect x="0" y="64" width="32" height="32" fill="#cccccc" />
  <rect x="32" y="64" width="32" height="32" fill="#ffffff" />
  <rect x="64" y="64" width="32" height="32" fill="#eeeeee" />
  <rect x="96" y="64" width="32" height="32" fill="#ffffff" />
  <rect x="128" y="64" width="32" height="32" fill="#ffffff" />
  <rect x="160" y="64" width="32" height="32" fill="#ffffff" />
  <rect x="192" y="64" width="32" height="32" fill="#aaaaaa" />
  <rect x="224" y="64" width="32" height="32" fill="#ffffff" />
  <rect x="256" y="64" width="32" height="32" fill="#ffffff" />
  <rect x="288" y="64" width="32" height="32" fill="#ffffff" />
  <rect x="320" y="64" width="32" height="32" fill="#bbbbbb" />
  <rect x="352" y="64" width="32" height="32" fill="#ffffff" />
  <rect x="384" y="64" width="32" height="32" fill="#ffffff" />
  <rect x="416" y="64" width="32" height="32" fill="#ffffff" />
  <rect x="448" y="64" width="32" height="32" fill="#dddddd" />
  <rect x="480" y="64" width="32" height="32" fill="#ffffff" />
  <rect x="512" y="64" width="32" height="32" fill="#ffffff" />
  <rect x="0" y="96" width="32" height="32" fill="#cccccc" />
  <rect x="32" y="96" width="32" height="32" fill="#eeeeee" />
  <rect x="64" y="96" width="32" height="32" fill="#ffffff" />
  <rect x="96" y="96" width="32" height="32" fill="#ffffff" />
  <rect x="128" y="96" width="32" height="32" fill="#ffffff" />
  <rect x="160" y="96" width="32" height="32" fill="#ffffff" />
  <rect x="192" y="96" width="32" height="32" fill="#ffffff" />
  <rect x="224" y="96" width="32" height="32" fill="#aaaaaa" />
  <rect x="256" y="96" width="32" height="32" fill="#ffffff" />
  <rect x="288" y="96" width="32" height="32" fill="#dddddd" />
  <rect x="320" y="96" width="32" height="32" fill="#ffffff" />
  <rect x="352" y="96" width="32" height="32" fill="#dddddd" />
  <rect x="384" y="96" width="32" height="32" fill="#ffffff" />
  <rect x="416" y="96" width="32" height="32" fill="#ffffff" />
  <rect x="448" y="96" width="32" height="32" fill="#ffffff" />
  <rect x="480" y="96" width="32" height="32" fill="#dddddd" />
  <rect x="512" y="96" width="32" height="32" fill="#ffffff" />
  <rect x="0" y="128" width="32" height="32" fill="#cccccc" />
  <rect x="32" y="128" width="32" height="32" fill="#ffffff" />
  <rect x="64" y="128" width="32" height="32" fill="#ffffff" />
  <rect x="96" y="128" width="32" height="32" fill="#ffffff" />
  <rect x="128" y="128" width="32" height="32" fill="#ffffff" />
  <rect x="160" y="128" width="32" height="32" fill="#ffffff" />
  <rect x="192" y="128" width="32" height="32" fill="#ffffff" />
  <rect x="224" y="128" width="32" height="32" fill="#ffffff" />
  <rect x="256" y="128" width="32" height="32" fill="#aaaaaa" />
  <rect x="288" y="128" width="32" height="32" fill="#ffffff" />
  <rect x="320" y="128" width="32" height="32" fill="#ffffff" />
  <rect x="352" y="128" width="32" height="32" fill="#ffffff" />
  <rect x="384" y="128" width="32" height="32" fill="#dddddd" />
  <rect x="416" y="128" width="32" height="32" fill="#ffffff" />
  <rect x="448" y="128" width="32" height="32" fill="#ffffff" />
  <rect x="480" y="128" width="32" height="32" fill="#ffffff" />
  <rect x="512" y="128" width="32" height="32" fill="#eeeeee" />
  <rect x="0" y="160" width="32" height="32" fill="#ffffff" />
  <rect x="32" y="160" width="32" height="32" fill="#dddddd" />
  <rect x="64" y="160" width="32" height="32" fill="#ffffff" />
  <rect x="96" y="160" width="32" height="32" fill="#ffffff" />
  <rect x="128" y="160" width="32" height="32" fill="#ffffff" />
  <rect x="160" y="160" width="32" height="32" fill="#ffffff" />
  <rect x="192" y="160" width="32" height="32" fill="#ffffff" />
  <rect x="224" y="160" width="32" height="32" fill="#ffffff" />
  <rect x="256" y="160" width="32" height="32" fill="#ffffff" />
  <rect x="288" y="160" width="32" height="32" fill="#bbbbbb" />
  <rect x="320" y="160" width="32" height="32" fill="#ffffff" />
  <rect x="352" y="160" width="32" height="32" fill="#dddddd" />
  <rect x="384" y="160" width="32" height="32" fill="#ffffff" />
  <rect x="416" y="160" width="32" height="32" fill="#ffffff" />
  <rect x="448" y="160" width="32" height="32" fill="#ffffff" />
  <rect x="480" y="160" width="32" height="32" fill="#ffffff" />
  <rect x="512" y="160" width="32" height="32" fill="#ffffff" />
  <rect x="0" y="192" width="32" height="32" fill="#ffffff" />
  <rect x="32" y="192" width="32" height="32" fill="#ffffff" />
  <rect x="64" y="192" width="32" height="32" fill="#dddddd" />
  <rect x="96" y="192" width="32" height="32" fill="#ffffff" />
  <rect x="128" y="192" width="32" height="32" fill="#ffffff" />
  <rect x="160" y="192" width="32" height="32" fill="#ffffff" />
  <rect x="192" y="192" width="32" height="32" fill="#ffffff" />
  <rect x="224" y="192" width="32" height="32" fill="#ffffff" />
  <rect x="256" y="192" width="32" height="32" fill="#ffffff" />
  <rect x="288" y="192" width="32" height="32" fill="#ffffff" />
  <rect x="320" y="192" width="32" height="32" fill="#999999" />
  <rect x="352" y="192" width="32" height="32" fill="#ffffff" />
  <rect x="384" y="192" width="32" height="32" fill="#ffffff" />
  <rect x="416" y="192" width="32" height="32" fill="#ffffff" />
  <rect x="448" y="192" width="32" height="32" fill="#ffffff" />
  <rect x="480" y="192" width="32" height="32" fill="#ffffff" />
  <rect x="512" y="192" width="32" height="32" fill="#ffffff" />
  <rect x="0" y="224" width="32" height="32" fill="#ffffff" />
  <rect x="32" y="224" width="32" height="32" fill="#ffffff" />
  <rect x="64" y="224" width="32" height="32" fill="#ffffff" />
  <rect x="96" y="224" width="32" height="32" fill="#dddddd" />
  <rect x="128" y="224" width="32" height="32" fill="#ffffff" />
  <rect x="160" y="224" width="32" height="32" fill="#ffffff" />
  <rect x="192" y="224" width="32" height="32" fill="#ffffff" />
  <rect x="224" y="224" width="32" height="32" fill="#ffffff" />
  <rect x="256" y="224" width="32" height="32" fill="#ffffff" />
  <rect x="288" y="224" width="32" height="32" fill="#dddddd" />
  <rect x="320" y="224" width="32" height="32" fill="#ffffff" />
  <rect x="352" y="224" width="32" height="32" fill="#bbbbbb" />
  <rect x="384" y="224" width="32" height="32" fill="#ffffff" />
  <rect x="416" y="224" width="32" height="32" fill="#ffffff" />
  <rect x="448" y="224" width="32" height="32" fill="#ffffff" />
  <rect x="480" y="224" width="32" height="32" fill="#ffffff" />
  <rect x="512" y="224" width="32" height="32" fill="#ffffff" />
  <rect x="0" y="256" width="32" height="32" fill="#ffffff" />
  <rect x="32" y="256" width="32" height="32" fill="#ffffff" />
  <rect x="64" y="256" width="32" height="32" fill="#ffffff" />
  <rect x="96" y="256" width="32" height="32" fill="#ffffff" />
  <rect x="128" y="256" width="32" height="32" fill="#eeeeee" />
  <rect x="160" y="256" width="32" height="32" fill="#ffffff" />
  <rect x="192" y="256" width="32" height="32" fill="#ffffff" />
  <rect x="224" y="256" width="32" height="32" fill="#ffffff" />
  <rect x="256" y="256" width="32" height="32" fill="#eeeeee" />
  <rect x="288" y="256" width="32" height="32" fill="#ffffff" />
  <rect x="320" y="256" width="32" height="32" fill="#ffffff" />
  <rect x="352" y="256" width="32" height="32" fill="#ffffff" />
  <rect x="384" y="256" width="32" height="32" fill="#dddddd" />
  <rect x="416" y="256" width="32" height="32" fill="#ffffff" />
  <rect x="448" y="256" width="32" height="32" fill="#ffffff" />
  <rect x="480" y="256" width="32" height="32" fill="#ffffff" />
  <rect x="512" y="256" width="32" height="32" fill="#ffffff" />
</svg>