<svg width="256" height="160" xmlns="http://www.w3.org/2000/svg">
  <rect x="0" y="0" width="32" height="32" fill="#dd00dd" />
  <rect x="32" y="0" width="32" height="32" fill="#aa00aa" />
  <rect x="64" y="0" width="32" height="32" fill="#330033" />
  <rect x="96" y="0" width="32" height="32" fill="#990099" />
  <rect x="128" y="0" width="32" height="32" fill="#aa00aa" />
  <rect x="160" y="0" width="32" height="32" fill="#330033" />
  <rect x="192" y="0" width="32" height="32" fill="#ee00ee" />
  <rect x="224" y="0" width="32" height="32" fill="#ee00ee" />
  <rect x="0" y="32" width="32" height="32" fill="#550055" />
  <rect x="32" y="32" width="32" height="32" fill="#ee00ee" />
  <rect x="64" y="32" width="32" height="32" fill="#660066" />
  <rect x="96" y="32" width="32" height="32" fill="#bb00bb" />
  <rect x="128" y="32" width="32" height="32" fill="#440044" />
  <rect x="160" y="32" width="32" height="32" fill="#bb00bb" />
  <rect x="192" y="32" width="32" height="32" fill="#000000" />
  <rect x="224" y="32" width="32" height="32" fill="#dd00dd" />
  <rect x="0" y="64" width="32" height="32" fill="#330033" />
  <rect x="32" y="64" width="32" height="32" fill="#220022" />
  <rect x="64" y="64" width="32" height="32" fill="#550055" />
  <rect x="96" y="64" width="32" height="32" fill="#550055" />
  <rect x="128" y="64" width="32" height="32" fill="#bb00bb" />
  <rect x="160" y="64" width="32" height="32" fill="#ff00ff" />
  <rect x="192" y="64" width="32" height="32" fill="#ee00ee" />
  <rect x="224" y="64" width="32" height="32" fill="#ff00ff" />
  <rect x="0" y="96" width="32" height="32" fill="#990099" />
  <rect x="32" y="96" width="32" height="32" fill="#550055" />
  <rect x="64" y="96" width="32" height="32" fill="#660066" />
  <rect x="96" y="96" width="32" height="32" fill="#000000" />
  <rect x="128" y="96" width="32" height="32" fill="#110011" />
  <rect x="160" y="96" width="32" height="32" fill="#880088" />
  <rect x="192" y="96" width="32" height="32" fill="#990099" />
  <rect x="224" y="96" width="32" height="32" fill="#000000" />
  <rect x="0" y="128" width="32" height="32" fill="#aa00aa" />
  <rect x="32" y="128" width="32" height="32" fill="#ff00ff" />
  <rect x="64" y="128" width="32" height="32" fill="#dd00dd" />
  <rect x="96" y="128" width="32" height="32" fill="#880088" />
  <rect x="128" y="128" width="32" height="32" fill="#000000" />
  <rect x="160" y="128" width="32" height="32" fill="#770077" />
  <rect x="192" y="128" width="32" height="32" fill="#000000" />
  <rect x="224" y="128" width="32" height="32" fill="#990099" />
</svg>