<svg width="384" height="256" xmlns="http://www.w3.org/2000/svg">
  <rect x="0" y="0" width="32" height="32" fill="hsl(240.00,100.00%,63.00%)" />
  <rect x="32" y="0" width="32" height="32" fill="hsl(240.00,100.00%,53.00%)" />
  <rect x="64" y="0" width="32" height="32" fill="hsl(240.00,100.00%,70.00%)" />
  <rect x="96" y="0" width="32" height="32" fill="hsl(240.00,100.00%,83.00%)" />
  <rect x="128" y="0" width="32" height="32" fill="hsl(240.00,100.00%,50.00%)" />
  <rect x="160" y="0" width="32" height="32" fill="hsl(240.00,100.00%,67.00%)" />
  <rect x="192" y="0" width="32" height="32" fill="hsl(240.00,100.00%,77.00%)" />
  <rect x="224" y="0" width="32" height="32" fill="hsl(240.00,100.00%,57.00%)" />
  <rect x="256" y="0" width="32" height="32" fill="hsl(240.00,100.00%,97.00%)" />
  <rect x="288" y="0" width="32" height="32" fill="hsl(240.00,100.00%,67.00%)" />
  <rect x="320" y="0" width="32" height="32" fill="hsl(240.00,100.00%,53.00%)" />
  <rect x="352" y="0" width="32" height="32" fill="hsl(240.00,100.00%,57.00%)" />
  <rect x="0" y="32" width="32" height="32" fill="hsl(240.00,100.00%,50.00%)" />
  <rect x="32" y="32" width="32" height="32" fill="hsl(240.00,100.00%,77.00%)" />
  <rect x="64" y="32" width="32" height="32" fill="hsl(240.00,100.00%,50.00%)" />
  <rect x="96" y="32" width="32" height="32" fill="hsl(240.00,100.00%,73.00%)" />
  <rect x="128" y="32" width="32" height="32" fill="hsl(240.00,100.00%,73.00%)" />
  <rect x="160" y="32" width="32" height="32" fill="hsl(240.00,100.00%,67.00%)" />
  <rect x="192" y="32" width="32" height="32" fill="hsl(240.00,100.00%,97.00%)" />
  <rect x="224" y="32" width="32" height="32" fill="hsl(240.00,100.00%,97.00%)" />
  <rect x="256" y="32" width="32" height="32" fill="hsl(240.00,100.00%,67.00%)" />
  <rect x="288" y="32" width="32" height="32" fill="hsl(240.00,100.00%,77.00%)" />
  <rect x="320" y="32" width="32" height="32" fill="hsl(240.00,100.00%,67.00%)" />
  <rect x="352" y="32" width="32" height="32" fill="hsl(240.00,100.00%,83.00%)" />
  <rect x="0" y="64" width="32" height="32" fill="hsl(240.00,100.00%,100.00%)" />
  <rect x="32" y="64" width="32" height="32" fill="hsl(240.00,100.00%,90.00%)" />
  <rect x="64" y="64" width="32" height="32" fill="hsl(240.00,100.00%,53.00%)" />
  <rect x="96" y="64" width="32" height="32" fill="hsl(240.00,100.00%,73.00%)" />
  <rect x="128" y="64" width="32" height="32" fill="hsl(240.00,100.00%,100.00%)" />
  <rect x="160" y="64" width="32" height="32" fill="hsl(240.00,100.00%,67.00%)" />
  <rect x="192" y="64" width="32" height="32" fill="hsl(240.00,100.00%,83.00%)" />
  <rect x="224" y="64" width="32" height="32" fill="hsl(240.00,100.00%,57.00%)" />
  <rect x="256" y="64" width="32" height="32" fill="hsl(240.00,100.00%,67.00%)" />
  <rect x="288" y="64" width="32" height="32" fill="hsl(240.00,100.00%,70.00%)" />
  <rect x="320" y="64" width="32" height="32" fill="hsl(240.00,100.00%,93.00%)" />
  <rect x="352" y="64" width="32" height="32" fill="hsl(240.00,100.00%,63.00%)" />
  <rect x="0" y="96" width="32" height="32" fill="hsl(240.00,100.00%,60.00%)" />
  <rect x="32" y="96" width="32" height="32" fill="hsl(240.00,100.00%,90.00%)" />
  <rect x="64" y="96" width="32" height="32" fill="hsl(240.00,100.00%,97.00%)" />
  <rect x="96" y="96" width="32" height="32" fill="hsl(240.00,100.00%,100.00%)" />
  <rect x="128" y="96" width="32" height="32" fill="hsl(240.00,100.00%,80.00%)" />
  <rect x="160" y="96" width="32" height="32" fill="hsl(240.00,100.00%,83.00%)" />
  <rect x="192" y="96" width="32" height="32" fill="hsl(240.00,100.00%,60.00%)" />
  <rect x="224" y="96" width="32" height="32" fill="hsl(240.00,100.00%,87.00%)" />
  <rect x="256" y="96" width="32" height="32" fill="hsl(240.00,100.00%,50.00%)" />
  <rect x="288" y="96" width="32" height="32" fill="hsl(240.00,100.00%,87.00%)" />
  <rect x="320" y="96" width="32" height="32" fill="hsl(240.00,100.00%,90.00%)" />
  <rect x="352" y="96" width="32" height="32" fill="hsl(240.00,100.00%,77.00%)" />
  <rect x="0" y="128" width="32" height="32" fill="hsl(240.00,100.00%,93.00%)" />
  <rect x="32" y="128" width="32" height="32" fill="hsl(240.00,100.00%,60.00%)" />
  <rect x="64" y="128" width="32" height="32" fill="hsl(240.00,100.00%,90.00%)" />
  <rect x="96" y="128" width="32" height="32" fill="hsl(240.00,100.00%,83.00%)" />
  <rect x="128" y="128" width="32" height="32" fill="hsl(240.00,100.00%,73.00%)" />
  <rect x="160" y="128" width="32" height="32" fill="hsl(240.00,100.00%,53.00%)" />
  <rect x="192" y="128" width="32" height="32" fill="hsl(240.00,100.00%,93.00%)" />
  <rect x="224" y="128" width="32" height="32" fill="hsl(240.00,100.00%,73.00%)" />
  <rect x="256" y="128" width="32" height="32" fill="hsl(240.00,100.00%,63.00%)" />
  <rect x="288" y="128" width="32" height="32" fill="hsl(240.00,100.00%,60.00%)" />
  <rect x="320" y="128" width="32" height="32" fill="hsl(240.00,100.00%,60.00%)" />
  <rect x="352" y="128" width="32" height="32" fill="hsl(240.00,100.00%,60.00%)" />
  <rect x="0" y="160" width="32" height="32" fill="hsl(240.00,100.00%,73.00%)" />
  <rect x="32" y="160" width="32" height="32" fill="hsl(240.00,100.00%,63.00%)" />
  <rect x="64" y="160" width="32" height="32" fill="hsl(240.00,100.00%,53.00%)" />
  <rect x="96" y="160" width="32" height="32" fill="hsl(240.00,100.00%,87.00%)" />
  <rect x="128" y="160" width="32" height="32" fill="hsl(240.00,100.00%,60.00%)" />
  <rect x="160" y="160" width="32" height="32" fill="hsl(240.00,100.00%,70.00%)" />
  <rect x="192" y="160" width="32" height="32" fill="hsl(240.00,100.00%,97.00%)" />
  <rect x="224" y="160" width="32" height="32" fill="hsl(240.00,100.00%,90.00%)" />
  <rect x="256" y="160" width="32" height="32" fill="hsl(240.00,100.00%,60.00%)" />
  <rect x="288" y="160" width="32" height="32" fill="hsl(240.00,100.00%,77.00%)" />
  <rect x="320" y="160" width="32" height="32" fill="hsl(240.00,100.00%,87.00%)" />
  <rect x="352" y="160" width="32" height="32" fill="hsl(240.00,100.00%,73.00%)" />
  <rect x="0" y="192" width="32" height="32" fill="hsl(240.00,100.00%,50.00%)" />
  <rect x="32" y="192" width="32" height="32" fill="hsl(240.00,100.00%,100.00%)" />
  <rect x="64" y="192" width="32" height="32" fill="hsl(240.00,100.00%,57.00%)" />
  <rect x="96" y="192" width="32" height="32" fill="hsl(240.00,100.00%,87.00%)" />
  <rect x="128" y="192" width="32" height="32" fill="hsl(240.00,100.00%,97.00%)" />
  <rect x="160" y="192" width="32" height="32" fill="hsl(240.00,100.00%,50.00%)" />
  <rect x="192" y="192" width="32" height="32" fill="hsl(240.00,100.00%,63.00%)" />
  <rect x="224" y="192" width="32" height="32" fill="hsl(240.00,100.00%,83.00%)" />
  <rect x="256" y="192" width="32" height="32" fill="hsl(240.00,100.00%,53.00%)" />
  <rect x="288" y="192" width="32" height="32" fill="hsl(240.00,100.00%,100.00%)" />
  <rect x="320" y="192" width="32" height="32" fill="hsl(240.00,100.00%,90.00%)" />
  <rect x="352" y="192" width="32" height="32" fill="hsl(240.00,100.00%,80.00%)" />
  <rect x="0" y="224" width="32" height="32" fill="hsl(240.00,100.00%,57.00%)" />
  <rect x="32" y="224" width="32" height="32" fill="hsl(240.00,100.00%,80.00%)" />
  <rect x="64" y="224" width="32" height="32" fill="hsl(240.00,100.00%,67.00%)" />
  <rect x="96" y="224" width="32" height="32" fill="hsl(240.00,100.00%,60.00%)" />
  <rect x="128" y="224" width="32" height="32" fill="hsl(240.00,100.00%,100.00%)" />
  <rect x="160" y="224" width="32" height="32" fill="hsl(240.00,100.00%,60.00%)" />
  <rect x="192" y="224" width="32" height="32" fill="hsl(240.00,100.00%,77.00%)" />
  <rect x="224" y="224" width="32" height="32" fill="hsl(240.00,100.00%,50.00%)" />
  <rect x="256" y="224" width="32" height="32" fill="hsl(240.00,100.00%,57.00%)" />
  <rect x="288" y="224" width="32" height="32" fill="hsl(240.00,100.00%,63.00%)" />
  <rect x="320" y="224" width="32" height="32" fill="hsl(240.00,100.00%,67.00%)" />
  <rect x="352" y="224" width="32" height="32" fill="hsl(240.00,100.00%,63.00%)" />
</svg>